<?xml version="1.0" standalone="no"?>
<!DOCTYPE svg PUBLIC "-//W3C//DTD SVG 20010904//EN"
 "http://www.w3.org/TR/2001/REC-SVG-20010904/DTD/svg10.dtd">
<svg version="1.0" xmlns="http://www.w3.org/2000/svg"
 width="458.000000pt" height="556.000000pt" viewBox="0 0 458.000000 556.000000"
 preserveAspectRatio="xMidYMid meet">

<g transform="translate(0.000000,556.000000) scale(0.100000,-0.100000)"
fill="#000000" stroke="none">
<path d="M2055 5506 c-127 -56 -122 -252 7 -286 34 -10 46 -8 79 8 36 18 40
18 48 3 38 -70 9 -173 -100 -352 -39 -66 -73 -119 -75 -119 -1 0 2 15 7 32 18
63 11 161 -14 209 -60 114 -206 120 -222 9 l-5 -35 10 32 c13 41 45 63 91 63
73 0 126 -92 117 -203 -8 -99 -26 -129 -98 -168 -34 -18 -84 -52 -110 -76 -26
-24 -51 -43 -55 -43 -4 0 -25 16 -46 35 -64 58 -115 79 -189 79 -131 0 -220
-85 -220 -211 0 -17 -4 -34 -9 -37 -5 -4 -21 -37 -36 -74 -22 -57 -35 -75 -81
-110 l-54 -42 0 38 c0 81 -61 137 -149 137 -93 0 -163 -59 -177 -146 -6 -37
-8 -38 -38 -31 -49 11 -157 7 -200 -7 -48 -17 -121 -82 -147 -132 -31 -62 -41
-124 -29 -187 15 -82 50 -129 120 -160 l58 -27 -38 -62 c-65 -108 -73 -219
-24 -316 l17 -32 16 25 c22 35 92 110 101 110 5 0 -12 -30 -37 -67 -90 -133
-154 -303 -170 -445 -7 -66 -13 -69 -81 -38 -34 15 -47 29 -63 65 -25 56 -34
57 -25 4 11 -66 31 -95 85 -121 l50 -23 -130 -105 c-71 -57 -130 -111 -130
-119 -2 -31 3 -45 33 -89 38 -55 33 -92 -12 -92 -60 0 -63 -70 -5 -118 l33
-27 -31 -2 c-33 -2 -67 -33 -67 -60 0 -8 13 -28 30 -43 16 -15 30 -33 30 -38
0 -5 -14 -36 -31 -68 -22 -43 -29 -67 -25 -88 7 -36 38 -70 74 -85 27 -10 216
-37 472 -66 159 -18 226 -45 265 -103 23 -37 81 -182 211 -535 64 -175 70
-185 77 -155 32 122 88 194 222 283 131 88 186 157 204 259 l7 41 68 -135
c133 -264 278 -446 448 -562 70 -47 150 -84 204 -93 34 -6 30 -3 -33 29 -128
66 -263 217 -356 401 -53 106 -69 148 -54 142 197 -88 345 -95 549 -27 150 50
275 121 555 315 92 64 218 142 279 172 95 47 122 56 183 61 89 6 150 -15 188
-65 52 -68 23 -173 -48 -173 -42 0 -60 10 -75 44 -9 20 -13 25 -14 13 0 -32
30 -84 56 -96 59 -26 141 -2 174 51 27 45 27 120 -1 164 -49 80 -177 113 -309
80 -40 -10 -180 -74 -365 -166 -165 -83 -341 -163 -390 -180 -226 -74 -522
-89 -662 -35 -21 9 -27 13 -13 10 71 -16 280 -17 388 -1 333 49 591 184 852
445 75 75 164 169 199 209 71 82 125 115 188 114 60 -2 99 -24 113 -67 15 -46
-1 -90 -41 -110 -38 -20 -53 -19 -84 8 -27 23 -33 46 -21 87 l7 25 -15 -25
c-53 -88 46 -177 150 -135 51 20 78 64 78 127 0 54 -21 89 -73 125 l-31 21 27
6 c65 14 153 14 228 -1 44 -8 91 -16 105 -16 42 0 135 51 146 79 7 20 35 37
129 79 66 30 121 58 122 62 3 8 -201 391 -216 406 -4 4 -59 -24 -121 -63 -87
-55 -119 -71 -139 -67 -19 4 -45 -6 -93 -36 -57 -35 -67 -46 -73 -76 -18 -97
-97 -215 -203 -303 -31 -26 -60 -48 -63 -48 -4 0 22 57 58 127 35 71 80 166
100 213 19 47 39 90 44 96 5 6 28 14 50 18 68 11 165 65 220 123 65 69 106
157 121 261 10 75 14 84 44 107 60 46 114 65 187 65 63 0 71 -3 98 -29 53 -54
32 -134 -41 -151 l-35 -8 33 -1 c44 -1 68 13 88 51 32 63 -12 148 -88 169 -22
6 -62 8 -89 4 -49 -7 -161 -55 -173 -74 -13 -21 -23 -11 -30 27 -8 48 -55 148
-91 190 -24 28 -29 44 -30 95 -1 34 -8 76 -17 92 -12 25 -13 34 -2 55 8 14 14
37 14 53 l0 27 -37 -24 c-21 -14 -67 -33 -103 -42 -173 -44 -304 61 -391 316
-50 145 -88 185 -151 159 -62 -26 -43 -110 27 -120 l40 -5 -30 -8 c-16 -4 -35
-9 -41 -11 -22 -6 -73 25 -88 54 -50 95 35 203 147 188 76 -10 125 -67 158
-181 58 -199 91 -265 152 -310 35 -25 115 -28 167 -6 l35 15 -48 7 c-69 10
-119 46 -151 109 -31 62 -32 99 -7 155 25 55 78 87 134 82 46 -5 128 19 183
52 87 55 100 177 24 237 -8 7 -36 13 -61 13 -80 0 -127 -72 -79 -120 11 -11
26 -20 32 -20 7 0 2 7 -10 16 -28 20 -28 55 1 82 70 66 161 -30 108 -115 -25
-40 -84 -59 -226 -73 -55 -5 -118 -14 -140 -20 -22 -5 -43 -10 -47 -10 -4 0
17 23 46 50 34 32 64 73 82 113 26 55 29 73 29 162 0 109 -16 157 -74 218 -83
90 -234 100 -319 23 -32 -29 -36 -40 -40 -92 -4 -54 -2 -62 23 -86 14 -15 39
-29 54 -33 61 -13 117 39 93 87 l-11 23 0 -22 c-2 -50 -83 -55 -102 -6 -31 83
90 147 178 93 107 -65 86 -257 -35 -319 -113 -58 -245 -26 -442 105 -280 185
-504 222 -696 114 -50 -28 -53 -28 -99 -14 -27 8 -65 14 -86 14 -21 0 -40 3
-42 8 -7 10 79 140 137 208 48 55 140 111 168 102 7 -3 12 -23 13 -46 3 -129
168 -169 258 -63 82 97 11 227 -123 225 -69 -2 -135 -30 -269 -119 -57 -36
-105 -64 -108 -61 -3 3 1 45 8 93 7 48 13 133 13 188 1 84 -3 106 -21 142 -39
73 -116 107 -178 79z m104 -62 c60 -50 46 -150 -24 -180 -43 -17 -70 -11 -107
24 -49 45 -46 131 6 167 33 24 90 19 125 -11z m521 -321 c51 -30 63 -86 31
-139 -38 -63 -128 -70 -175 -13 -42 50 -30 114 26 149 40 24 81 25 118 3z
m-473 -199 c3 -8 -2 -23 -11 -32 -15 -15 -17 -15 -32 0 -21 21 -11 48 16 48
11 0 23 -7 27 -16z m520 -179 c25 -28 29 -55 13 -86 -18 -32 -80 -22 -80 14 0
19 1 20 13 3 17 -23 47 -11 47 20 0 30 -37 49 -75 40 -18 -5 -31 -18 -41 -42
-29 -70 20 -134 101 -134 21 0 80 12 133 26 142 39 210 27 264 -47 10 -13 21
-40 25 -59 l6 -34 -28 22 c-39 31 -107 29 -222 -8 -96 -31 -180 -38 -227 -20
-14 5 -46 28 -70 50 -67 62 -81 141 -39 223 35 69 134 86 180 32z m-734 -82
c-18 -2 -33 -8 -33 -13 0 -5 -7 -7 -15 -3 -9 3 -15 1 -13 -4 2 -5 -12 -24 -29
-42 -26 -26 -33 -41 -33 -73 0 -27 -4 -38 -12 -35 -21 7 -12 66 14 95 l23 27
-26 -23 c-29 -26 -53 -90 -43 -118 4 -11 18 -28 32 -40 17 -14 23 -27 19 -37
-10 -26 -25 -20 -47 16 -62 101 41 260 165 255 l30 -1 -32 -4z m-374 -38 c28
-16 50 -30 48 -32 -2 -2 -27 1 -55 7 -90 17 -209 -17 -274 -78 -25 -23 -28
-23 -28 -7 0 37 49 102 92 124 59 30 146 24 217 -14z m411 -12 c-22 -23 -40
-49 -40 -60 0 -30 -37 -60 -58 -47 -52 33 -2 117 83 139 28 7 51 12 53 10 1
-1 -16 -20 -38 -42z m197 -9 c26 -15 52 -30 58 -35 5 -5 18 -9 29 -9 44 0 56
-27 57 -124 0 -138 4 -145 149 -254 69 -52 157 -112 195 -134 185 -107 300
-207 325 -283 17 -51 -2 -113 -52 -170 -73 -83 -125 -94 -211 -45 -85 48 -106
43 -196 -44 -77 -75 -155 -123 -238 -145 -29 -8 -43 -17 -43 -28 0 -13 -3 -14
-12 -5 -17 17 -44 15 -62 -4 -38 -37 6 -63 46 -27 18 16 18 16 12 0 -3 -10
-18 -20 -33 -23 -14 -3 -36 -9 -48 -14 -13 -6 -27 -4 -37 3 -14 11 -11 20 26
82 49 82 143 179 286 293 61 50 102 90 102 101 0 16 -149 203 -276 346 l-54
60 -85 -1 -85 0 -6 33 c-9 46 16 107 82 201 l55 77 -74 -76 c-78 -80 -125
-149 -137 -202 l-7 -32 -11 28 c-7 15 -30 52 -53 82 -23 31 -39 58 -36 61 7 7
57 -26 77 -51 7 -8 17 -15 23 -15 6 0 2 10 -9 23 -11 12 -26 31 -34 41 -14 18
-13 18 10 11 14 -4 34 -15 45 -24 11 -9 5 1 -13 22 -33 39 -40 57 -21 57 8 0
7 5 -1 15 -15 18 -6 32 12 18 7 -5 22 -13 32 -17 16 -5 17 -4 6 9 -17 21 -1
19 38 -5 38 -24 40 -18 7 22 -14 16 -25 34 -25 39 0 10 33 -6 63 -30 28 -23
30 -5 2 25 -22 24 -24 29 -10 34 14 5 14 8 1 25 -9 11 -16 23 -16 27 0 12 70
1 88 -14 36 -32 45 -30 19 4 -15 19 -27 37 -27 41 0 8 58 -22 65 -34 4 -5 11
-9 18 -9 6 0 -7 19 -31 41 -37 37 -51 59 -37 59 2 0 26 -12 52 -26z m-687
-109 c59 -31 79 -121 37 -170 -15 -18 -36 -28 -64 -32 -37 -5 -45 -2 -73 25
-35 35 -39 71 -11 96 21 19 62 18 68 0 2 -7 -5 -10 -20 -7 -16 3 -26 -1 -31
-12 -10 -28 12 -55 44 -55 58 0 77 80 27 115 -50 35 -120 6 -138 -56 -11 -35
-10 -45 5 -74 21 -39 69 -65 118 -65 19 0 70 17 115 39 45 22 98 44 117 50
l36 9 0 -59 c0 -46 -3 -59 -15 -59 -24 0 -108 -45 -132 -72 -59 -63 -79 -176
-44 -253 60 -133 245 -152 307 -32 12 23 15 47 11 91 -5 55 -4 59 9 41 22 -30
35 -88 28 -126 -33 -171 -247 -223 -404 -99 -42 33 -79 100 -91 164 -9 47 5
156 26 195 13 27 13 28 -21 40 -74 27 -124 93 -124 163 1 50 34 115 72 138 40
24 107 26 148 5z m983 -10 c12 -14 29 -45 37 -68 16 -41 17 -42 58 -39 23 2
57 -2 77 -8 38 -13 48 -40 14 -40 -11 0 -29 -5 -40 -10 -13 -8 -25 -7 -41 1
-18 10 -20 9 -14 -6 8 -22 -10 -45 -35 -45 -11 0 -19 -6 -19 -14 0 -8 -4 -18
-10 -21 -5 -3 -10 4 -10 17 0 51 -3 57 -32 56 -15 -1 -28 -5 -28 -10 0 -4 -7
-8 -17 -8 -15 0 -15 1 0 18 10 10 14 27 11 39 -4 15 0 26 15 34 15 10 17 16 9
27 -6 7 -12 25 -13 40 -2 15 -6 35 -10 45 -11 27 21 21 48 -8z m535 -45 c29
-28 28 -37 -7 -45 -32 -7 -59 3 -81 30 -12 14 -11 18 1 26 24 15 64 10 87 -11z
m-138 -30 c0 -27 -43 -70 -71 -70 -18 0 -20 4 -14 28 9 37 34 62 62 62 17 0
23 -6 23 -20z m64 -25 c38 -35 48 -69 36 -116 -6 -21 -15 -41 -19 -44 -13 -8
-70 52 -77 82 -7 27 12 103 25 103 4 0 20 -11 35 -25z m-1956 -71 c42 -48 19
-134 -37 -134 -51 0 -80 42 -55 79 18 24 52 28 60 6 4 -8 1 -22 -6 -30 -15
-18 1 -20 18 -3 29 29 -3 78 -50 78 -40 0 -78 -43 -78 -86 0 -43 43 -93 88
-102 l33 -7 -29 -34 -28 -34 -36 49 c-51 70 -58 87 -58 136 0 51 21 85 64 104
41 18 86 10 114 -22z m278 -69 c31 -31 24 -45 -21 -45 -39 0 -87 47 -63 62 24
15 59 8 84 -17z m1548 -1 c9 -3 38 -37 66 -75 56 -76 102 -108 127 -88 10 9
13 23 10 43 -3 17 -7 40 -9 51 -2 15 3 21 22 23 19 2 47 -16 118 -80 77 -68
92 -87 90 -108 -3 -24 -6 -25 -55 -22 -43 3 -54 1 -60 -13 -10 -29 21 -65 92
-109 38 -23 77 -53 88 -68 17 -23 18 -30 7 -62 -11 -34 -73 -96 -96 -96 -7 0
-9 10 -6 25 3 20 0 25 -17 25 -15 0 -22 6 -20 18 3 33 -1 42 -21 42 -15 0 -20
7 -20 25 0 20 -5 25 -23 25 -18 0 -23 5 -23 23 1 15 -5 23 -21 25 -16 2 -22 9
-20 25 1 17 -4 23 -25 25 -19 2 -25 7 -21 19 7 18 -15 35 -38 28 -11 -4 -15 1
-15 17 1 18 -4 23 -24 23 -16 0 -27 7 -31 20 -3 12 -13 20 -26 19 -15 0 -24 7
-28 24 -5 19 -10 23 -29 18 -18 -4 -25 -1 -29 15 -5 17 -11 20 -30 15 -20 -5
-26 -1 -30 15 -5 17 -11 20 -31 15 -31 -8 -31 -6 -6 43 33 66 84 94 134 75z
m-1024 -151 c0 -2 -12 -3 -28 -3 -71 0 -125 -80 -97 -146 21 -51 105 -61 120
-13 10 30 -3 69 -23 70 -15 1 -15 2 1 6 44 11 74 -66 47 -118 -14 -26 -62 -49
-102 -49 -46 0 -107 38 -129 80 -22 41 -25 117 -5 163 19 44 75 96 122 112
l38 13 28 -57 c15 -31 28 -57 28 -58z m-510 77 c0 -21 -28 -76 -48 -93 -11
-10 -39 -21 -61 -24 -37 -5 -41 -4 -41 16 0 34 27 79 58 95 31 17 92 21 92 6z
m73 -59 c0 -16 -6 -37 -13 -46 -13 -16 -16 -15 -32 5 -20 25 -23 62 -7 92 l11
20 21 -20 c11 -12 20 -34 20 -51z m-635 -37 c31 -15 64 -42 82 -67 31 -42 36
-62 21 -86 -7 -11 -13 -6 -26 20 -41 81 -102 119 -189 119 -66 0 -115 -26
-143 -76 -51 -89 -2 -199 88 -196 l32 1 -21 -22 c-21 -20 -24 -21 -64 -7 -136
48 -122 262 22 324 56 24 138 20 198 -10z m2687 1 c28 -27 30 -42 14 -79 -15
-33 -57 -50 -92 -37 -49 19 -61 71 -26 115 27 34 71 35 104 1z m-1177 -59 c85
-71 102 -91 102 -122 0 -7 -39 -60 -88 -116 -48 -57 -99 -117 -112 -134 -23
-29 -353 -425 -524 -629 -42 -49 -127 -151 -188 -227 -113 -137 -154 -175 -82
-76 22 29 44 60 51 68 7 8 54 74 104 145 51 72 121 166 155 210 33 44 64 90
68 101 6 21 -5 42 -94 166 -18 26 -31 50 -29 53 3 2 34 -20 69 -50 36 -29 67
-51 70 -49 3 3 -4 13 -16 22 -89 73 -106 91 -97 107 8 13 16 10 57 -26 26 -23
49 -39 52 -36 3 2 -16 22 -42 43 -25 21 -41 40 -35 42 6 2 9 8 5 13 -10 17 13
9 31 -11 10 -11 23 -20 28 -20 6 0 -2 15 -19 33 -16 17 -22 26 -14 20 21 -19
35 -15 17 5 -12 14 -13 19 -3 29 10 8 23 2 57 -28 24 -21 40 -38 34 -39 -5 0
-24 14 -42 32 -18 17 -35 29 -38 26 -3 -3 19 -26 49 -52 56 -47 83 -61 51 -26
-13 14 -14 20 -5 20 9 0 8 6 -5 20 -27 30 -3 24 26 -6 21 -22 21 -24 4 -18
-18 7 -18 6 -7 -9 11 -13 17 -14 27 -4 11 10 4 21 -38 59 -55 50 -87 65 -47
23 13 -14 19 -25 14 -25 -6 0 -23 14 -40 31 -18 19 -23 28 -11 24 14 -6 16 -4
10 11 -4 10 23 -7 61 -39 54 -46 70 -55 80 -44 15 13 4 37 -16 37 -6 0 -5 -7
2 -15 27 -33 -8 -12 -60 36 -30 28 -46 46 -35 41 11 -6 31 -22 44 -36 14 -14
29 -26 35 -26 6 1 -11 21 -39 45 -27 25 -45 45 -39 45 6 0 21 -11 34 -25 13
-14 28 -25 34 -25 5 0 -6 17 -25 37 -18 21 -25 30 -13 20 30 -25 41 -21 17 6
-17 18 -19 24 -8 34 10 9 17 8 31 -8 9 -10 22 -19 27 -19 6 0 -2 15 -19 33
-16 17 -22 26 -14 20 20 -18 35 -16 20 2 -27 33 8 12 60 -35 30 -27 46 -47 35
-43 -18 6 -19 5 -6 -11 8 -9 17 -13 20 -9 4 4 10 11 14 14 4 3 -22 32 -59 63
-36 31 -61 56 -56 56 5 0 30 -18 55 -40 66 -58 72 -49 7 11 -30 28 -46 46 -35
40 33 -17 111 -90 97 -91 -15 0 -6 -20 9 -20 6 0 8 4 5 9 -4 5 -1 11 5 13 5 2
-19 27 -55 56 -53 43 -63 56 -53 67 10 10 19 7 49 -17 21 -16 40 -34 43 -39 4
-5 12 -9 18 -9 7 0 -10 21 -38 45 -27 25 -41 42 -30 38 16 -5 18 -4 8 8 -26
27 -12 32 15 6 39 -37 52 -34 16 4 -20 22 -23 29 -9 21 11 -5 31 -22 44 -36
14 -14 29 -26 35 -26 6 1 -11 21 -39 45 -27 25 -45 45 -39 45 6 0 21 -11 34
-25 13 -14 28 -25 34 -25 5 0 -6 16 -25 37 -33 36 -33 36 -4 16 17 -12 39 -30
49 -42 11 -12 24 -21 30 -21 6 0 -14 23 -44 50 -30 28 -47 47 -37 44 14 -5 16
-2 10 12 -4 12 14 2 48 -26 80 -67 98 -78 65 -42 -17 18 -25 32 -19 32 5 0 18
-9 27 -19 14 -16 21 -17 31 -8 11 10 8 17 -13 40 -14 15 -30 27 -36 27 -5 0 3
-14 20 -31 20 -22 23 -29 9 -21 -11 5 -31 22 -44 36 -14 14 -29 26 -34 26 -6
0 0 -11 13 -25 13 -14 19 -25 14 -25 -6 0 -26 17 -45 38 -18 20 -27 31 -19 25
20 -18 35 -16 20 2 -18 21 3 46 22 27 20 -20 32 -13 13 8 -11 12 -13 20 -6 20
7 0 10 3 8 8 -3 4 1 12 7 18 9 9 29 -2 79 -43 37 -30 67 -50 67 -46 0 4 -28
34 -62 65 -91 83 -56 71 50 -16z m-1048 -11 c33 -17 60 -61 60 -98 0 -14 -13
-68 -30 -122 -46 -151 -39 -214 30 -250 45 -23 54 -18 26 16 -32 37 -40 68
-32 114 11 55 44 86 98 92 40 5 50 2 72 -20 18 -18 26 -37 26 -61 0 -44 -16
-55 -23 -16 -12 59 -89 62 -103 4 -15 -59 24 -100 181 -192 89 -51 139 -101
161 -157 57 -150 -99 -287 -215 -189 -53 45 -51 114 5 150 20 14 30 15 49 6
14 -7 25 -17 25 -23 0 -8 -4 -8 -15 1 -23 19 -64 4 -71 -26 -13 -53 63 -88
106 -49 11 10 23 34 26 53 10 55 -25 112 -105 171 -57 42 -74 49 -126 54 -33
3 -67 8 -75 11 -13 6 -15 -10 -16 -111 0 -80 -6 -137 -18 -178 -21 -72 -31
-189 -22 -239 4 -21 22 -54 42 -76 l35 -39 -46 -26 c-62 -37 -127 -55 -195
-55 -107 0 -181 43 -238 139 -72 122 9 303 142 318 55 7 128 -18 152 -50 14
-20 15 -7 12 158 -3 178 -3 180 -33 234 -37 67 -78 98 -147 113 -51 11 -59 10
-104 -13 -39 -19 -54 -34 -73 -72 -21 -43 -22 -53 -12 -86 15 -52 44 -76 93
-76 50 0 82 33 75 79 -4 27 -3 28 10 10 21 -27 11 -99 -18 -130 -28 -30 -82
-45 -133 -37 -51 8 -119 73 -136 130 -27 90 21 201 114 257 42 27 59 31 141
34 85 4 99 2 152 -22 32 -15 68 -36 79 -47 l22 -20 6 38 c4 21 16 70 28 110
24 83 19 118 -18 135 -23 11 -29 9 -45 -11 -24 -29 -24 -36 1 -61 26 -26 10
-26 -24 1 -36 28 -35 72 3 110 33 33 58 36 101 14z m-514 -79 c47 -47 44 -65
-21 -103 -47 -27 -53 -28 -40 -10 8 12 15 31 15 42 -1 17 -3 16 -16 -7 -28
-53 -104 -25 -104 38 0 12 9 33 21 48 17 21 29 26 66 26 38 0 50 -5 79 -34z
m2808 -72 l-2 -38 15 28 c18 35 48 31 48 -7 -1 -15 5 -27 11 -27 7 0 16 -10
19 -21 8 -26 -11 -41 -40 -33 -19 6 -19 6 -1 -8 21 -17 18 -51 -6 -56 -10 -2
-23 8 -32 25 l-15 28 6 -37 c5 -36 4 -38 -21 -38 -22 0 -26 5 -26 28 -1 23 -2
24 -11 10 -13 -22 -32 -23 -50 -2 -11 14 -10 19 9 35 l23 18 -28 -2 c-24 -2
-28 2 -28 23 0 21 4 25 28 23 28 -2 28 -2 7 15 -14 11 -19 23 -15 35 9 22 41
22 54 0 9 -16 10 -14 11 9 0 25 14 39 35 34 6 -2 9 -20 9 -42z m-1096 19 c2
-35 -9 -83 -22 -96 -12 -12 -7 -14 29 -14 27 0 56 -8 81 -24 l38 -23 -39 -10
c-26 -6 -49 -5 -68 2 -17 6 -34 9 -40 5 -6 -3 -7 -1 -3 5 9 15 -60 8 -82 -9
-10 -8 -6 -2 9 12 14 15 32 28 38 30 6 2 13 22 15 45 1 22 11 52 21 67 20 32
21 32 23 10z m1273 -114 c15 -15 24 -18 34 -9 11 9 12 7 9 -8 -7 -25 28 -67
49 -59 22 8 22 35 0 59 -16 18 -16 18 1 12 12 -5 22 -1 28 9 16 29 24 19 20
-25 -5 -74 -11 -88 -34 -88 -12 0 -31 8 -42 18 -21 17 -21 17 -3 -4 38 -45 6
-92 -54 -79 -18 4 -36 2 -44 -5 -10 -8 -15 -9 -15 -2 0 6 9 16 21 23 15 8 18
14 10 22 -19 19 -12 31 7 14 25 -23 62 -22 62 1 0 26 -20 42 -53 42 -24 0 -27
2 -18 14 9 11 9 16 -2 23 -13 7 -37 45 -37 57 0 14 42 4 61 -15z m-1275 -105
c-8 -21 -50 -14 -54 9 -2 9 1 17 7 17 6 0 11 -7 11 -16 0 -24 24 -10 29 17 3
19 5 20 9 6 2 -10 1 -25 -2 -33z m-751 11 c14 -13 25 -36 25 -50 0 -33 -42
-75 -75 -75 -33 0 -75 42 -75 75 0 33 42 75 75 75 14 0 37 -11 50 -25z m602
-87 c-2 -13 -4 -5 -4 17 -1 22 1 32 4 23 2 -10 2 -28 0 -40z m1316 -8 c5 0 7
9 4 21 -3 13 -1 19 6 16 7 -2 13 -12 15 -23 8 -54 13 -64 32 -64 36 0 55 -90
23 -108 -15 -9 -15 -15 -5 -50 15 -48 15 -62 2 -62 -5 0 -10 9 -10 20 0 11 -6
20 -14 20 -9 0 -12 -8 -8 -25 2 -15 0 -25 -7 -25 -6 0 -11 9 -11 20 0 11 -6
20 -14 20 -9 0 -12 -8 -8 -25 2 -15 0 -25 -7 -25 -6 0 -11 9 -11 20 0 11 -6
20 -14 20 -9 0 -12 -8 -8 -26 3 -19 1 -25 -7 -20 -6 4 -11 14 -11 22 0 8 -4
14 -10 14 -5 0 -10 -9 -10 -20 0 -11 -4 -20 -10 -20 -5 0 -10 8 -10 18 0 10
-6 19 -13 19 -9 0 -12 -9 -9 -24 2 -13 -1 -23 -7 -23 -6 0 -11 9 -11 20 0 11
-4 20 -10 20 -5 0 -10 -11 -10 -25 0 -14 -4 -25 -10 -25 -5 0 -10 9 -10 20 0
30 -18 24 -23 -7 -4 -27 -4 -27 -12 -5 -9 27 -29 30 -22 2 7 -27 -10 -36 -18
-10 -9 29 -27 25 -19 -5 4 -15 2 -25 -5 -25 -6 0 -11 9 -11 20 0 11 -4 20 -10
20 -5 0 -10 -11 -10 -25 0 -14 -4 -25 -10 -25 -5 0 -10 6 -10 14 0 8 -5 18
-12 22 -7 5 -9 0 -6 -14 4 -13 0 -23 -8 -26 -9 -3 -14 2 -14 14 0 11 -5 20
-11 20 -6 0 -9 -9 -6 -20 3 -13 0 -20 -9 -20 -8 0 -14 6 -14 14 0 8 -5 18 -11
22 -9 5 -10 -1 -5 -20 5 -19 3 -26 -9 -26 -8 0 -15 9 -15 20 0 11 -4 20 -10
20 -5 0 -10 -9 -10 -20 0 -11 -4 -20 -10 -20 -5 0 -10 7 -10 15 0 8 -5 15 -11
15 -6 0 -8 -9 -4 -20 7 -23 -10 -28 -19 -5 -8 23 -28 18 -21 -5 4 -11 2 -20
-4 -20 -10 0 -16 16 -23 65 -5 31 -81 27 -135 -8 -62 -40 -139 -54 -463 -87
-162 -16 -315 -32 -340 -35 -44 -4 -44 -4 20 19 36 13 192 68 348 121 l282 96
102 0 c148 -1 159 8 132 113 -3 15 -2 26 4 26 5 0 12 -9 15 -21 3 -12 10 -18
15 -15 6 3 8 15 5 26 -3 11 0 20 6 20 6 0 11 -9 11 -20 0 -11 6 -20 14 -20 9
0 12 8 8 25 -2 15 0 25 7 25 6 0 11 -9 11 -20 0 -11 7 -20 15 -20 11 0 14 7 9
25 -4 15 -2 25 5 25 6 0 11 -9 11 -20 0 -11 5 -20 10 -20 6 0 10 9 10 20 0 11
5 20 10 20 6 0 10 -7 10 -15 0 -8 5 -15 10 -15 6 0 10 9 10 20 0 11 5 20 10
20 6 0 10 -9 10 -21 0 -11 5 -17 10 -14 6 3 10 15 10 26 0 10 5 19 10 19 6 0
10 -9 10 -20 0 -11 5 -20 10 -20 6 0 10 11 10 25 0 14 5 25 10 25 6 0 10 -9
10 -20 0 -11 5 -20 11 -20 7 0 9 10 5 25 -4 15 -2 25 5 25 6 0 13 -9 16 -20 3
-11 10 -20 15 -20 6 0 8 9 5 20 -3 11 -2 22 3 25 4 3 10 -4 13 -15 3 -11 10
-20 15 -20 6 0 8 8 5 19 -3 10 0 22 6 25 7 4 11 -1 11 -13 0 -12 6 -21 14 -21
9 0 12 7 9 20 -3 11 -1 20 5 20 5 0 12 -9 15 -21 3 -12 10 -18 15 -15 6 3 8
15 5 26 -3 11 0 20 6 20 6 0 11 -9 11 -20 0 -11 5 -20 10 -20 6 0 10 11 10 25
0 14 5 25 10 25 6 0 10 -9 10 -20 0 -11 5 -20 10 -20 6 0 10 11 10 25 0 14 5
25 10 25 6 0 10 -9 10 -20 0 -31 20 -24 21 8 0 27 1 27 11 5 6 -13 15 -23 21
-23z m394 -27 c102 -82 101 -221 -2 -312 -35 -31 -36 -33 -20 -51 46 -51 18
-147 -50 -176 -62 -25 -129 17 -129 81 0 43 28 75 66 75 30 0 68 -31 68 -56 0
-46 -44 -70 -71 -38 -11 13 -9 14 13 9 18 -5 27 -2 31 9 8 20 -16 38 -45 34
-19 -2 -23 -9 -23 -38 0 -28 5 -37 27 -48 58 -27 114 39 83 99 -19 36 -39 46
-106 54 -30 4 -69 11 -87 17 l-32 10 20 26 c19 24 28 26 90 27 53 0 75 5 96
21 50 37 69 72 69 124 0 40 -5 54 -30 80 -26 27 -55 42 -90 45 -23 3 -66 -28
-81 -58 -22 -41 -30 -20 -10 27 33 80 139 99 213 39z m-1166 -36 c42 -28 53
-70 17 -65 -15 2 -24 11 -26 25 -2 13 -13 30 -25 38 -24 17 -94 20 -117 5 -11
-8 -8 -9 13 -4 30 7 77 -2 77 -15 0 -4 -27 -7 -59 -7 -33 0 -57 5 -54 10 4 5
1 6 -6 2 -6 -4 -9 -11 -6 -16 5 -8 -30 -35 -50 -39 -5 -1 -15 -12 -22 -24 -7
-12 -12 -17 -13 -12 0 14 29 55 55 78 58 52 158 63 216 24z m1110 -26 c79 -80
-9 -208 -134 -193 -26 3 -28 6 -26 48 2 24 4 44 5 44 2 0 14 -5 28 -11 33 -15
79 3 95 38 22 48 -36 98 -69 58 -7 -8 -9 -22 -6 -31 5 -14 4 -15 -9 -4 -20 16
-19 22 6 54 28 36 72 35 110 -3z m-1212 -53 c12 -32 -13 -58 -56 -58 -38 0
-67 -12 -100 -43 -30 -27 -29 -16 2 42 30 54 66 80 113 81 25 0 35 -5 41 -22z
m-699 -84 c22 -14 33 -15 60 -6 44 16 53 7 46 -42 -5 -34 -3 -48 15 -70 26
-33 12 -56 -34 -56 -22 0 -38 -9 -57 -32 -30 -36 -44 -32 -64 17 -10 24 -23
35 -45 40 -39 8 -41 36 -6 63 18 14 25 29 25 54 0 52 13 59 60 32z m1614 -148
c65 -27 113 -124 97 -196 l-7 -35 -14 55 c-9 39 -23 64 -47 88 -28 26 -31 32
-15 32 24 0 50 -29 62 -66 6 -21 9 -23 9 -9 1 27 -32 80 -64 101 -21 14 -30
14 -54 4 -32 -13 -51 -7 -51 15 0 26 37 31 84 11z m-354 -19 c0 -19 -65 -129
-85 -145 -25 -19 -25 -21 -6 -27 11 -3 37 -25 56 -48 41 -48 31 -58 -30 -33
-26 11 -35 12 -32 3 2 -6 0 -20 -5 -29 -7 -14 -3 -19 15 -24 43 -10 174 38
150 55 -26 18 -53 68 -53 98 0 40 41 105 76 122 14 6 46 11 72 11 115 0 177
-105 118 -199 -44 -69 -136 -104 -347 -134 l-82 -12 86 -74 c99 -83 160 -153
182 -205 60 -143 -74 -261 -200 -175 -36 25 -65 75 -65 115 0 62 49 124 97
124 57 0 -5 94 -94 142 -44 24 -184 69 -538 174 -71 21 -148 45 -170 55 -38
16 -88 59 -69 59 5 0 63 -16 128 -35 66 -19 126 -35 135 -34 19 1 -207 78
-231 79 -9 0 -20 5 -24 11 -14 23 140 1 284 -40 427 -123 459 -131 448 -112
-3 5 1 14 10 21 11 10 18 10 26 2 9 -9 8 -12 -5 -12 -9 0 -17 -5 -17 -10 0
-17 29 -23 44 -11 17 14 26 70 13 78 -6 4 -7 1 -2 -8 7 -12 6 -12 -7 -1 -9 7
-15 22 -13 33 3 16 0 19 -16 14 -39 -13 -105 -8 -142 10 -37 17 -97 77 -97 96
0 6 12 -3 26 -20 14 -17 39 -40 55 -52 35 -25 123 -36 135 -18 5 8 3 10 -7 4
-8 -5 -6 1 5 13 10 12 22 19 27 16 5 -2 15 10 22 28 8 18 23 40 33 49 31 27
94 57 94 46z m-1324 -66 c55 -54 69 -131 35 -188 -11 -17 -44 -50 -73 -73 -92
-72 -168 -152 -189 -199 -41 -93 -35 -173 17 -222 l25 -24 -10 28 c-15 39 -14
101 3 140 17 43 76 93 123 106 108 30 204 -54 179 -155 -7 -25 -64 -89 -72
-81 -2 2 1 18 7 36 33 94 -64 163 -126 89 -25 -29 -27 -38 -22 -88 3 -35 21
-91 49 -155 130 -291 154 -417 99 -539 -44 -101 -137 -157 -232 -141 -97 17
-142 137 -70 192 34 26 111 5 111 -30 0 -6 -9 -2 -20 8 -47 42 -112 -25 -77
-79 34 -51 116 -46 172 9 74 75 73 193 -5 397 -49 128 -52 134 -91 152 -22 11
-58 38 -79 59 -36 37 -37 38 -33 13 3 -14 3 -36 0 -49 -7 -26 -43 -67 -59 -67
-6 0 -3 9 7 20 24 26 13 68 -23 81 -15 6 -54 15 -87 20 -33 6 -73 18 -90 28
-41 23 -75 77 -75 117 l0 33 -47 -26 c-30 -17 -82 -32 -149 -44 -115 -19 -158
-39 -192 -90 -33 -47 -27 -122 12 -156 34 -29 86 -31 110 -4 24 26 17 72 -12
87 -35 17 -3 25 35 9 52 -22 67 -70 38 -125 -35 -67 -147 -80 -205 -25 -66 63
-77 178 -26 256 48 72 161 119 289 119 81 0 115 11 176 55 47 35 102 34 130
-1 25 -32 26 -51 4 -76 -19 -21 -44 -23 -61 -6 -16 16 -15 33 1 20 17 -15 40
1 35 24 -5 31 -53 30 -74 -1 -38 -58 16 -114 117 -122 35 -3 79 -14 97 -24 18
-11 35 -19 37 -19 2 0 -5 19 -15 43 -30 66 -27 148 10 226 24 49 55 88 140
172 112 112 131 142 111 185 -34 76 -139 30 -112 -49 l11 -31 -24 23 c-63 59
-31 145 63 170 39 11 78 1 107 -28z m1168 10 c10 -11 16 -28 13 -38 -4 -15 -5
-14 -6 4 -2 36 -61 53 -61 18 0 -7 6 -16 13 -18 7 -3 6 -6 -5 -6 -23 -1 -31
15 -18 39 14 25 42 26 64 1z m534 -62 c37 -39 35 -114 -3 -172 -9 -15 -18 -27
-19 -27 -2 0 -1 14 2 30 3 20 -5 49 -22 84 -31 62 -32 81 -8 95 24 15 29 14
50 -10z m-2125 -36 c-7 -74 -12 -90 -29 -97 -10 -4 -26 1 -38 12 -15 14 -35
19 -69 18 -37 -1 -44 1 -32 10 12 9 11 14 -10 34 -27 25 -33 60 -11 60 7 0 26
-10 41 -22 20 -15 30 -18 33 -10 7 22 17 12 18 -18 1 -29 19 -60 35 -60 5 0
13 9 18 19 8 15 6 25 -11 47 -20 25 -21 27 -4 21 13 -5 25 -1 38 13 10 11 20
20 22 20 2 0 2 -21 -1 -47z m672 -27 c17 -19 89 -70 160 -114 72 -43 148 -90
169 -103 22 -13 54 -39 73 -57 l33 -33 55 12 c67 15 85 4 85 -51 0 -21 3 -45
6 -54 7 -17 64 -61 228 -175 65 -45 140 -100 166 -123 43 -37 47 -44 38 -62
-6 -12 -15 -24 -20 -27 -12 -8 -133 58 -187 100 -22 17 -42 31 -46 31 -3 0
-32 19 -63 43 -177 134 -210 152 -329 177 -88 18 -115 20 -127 11 -26 -21
-146 28 -146 60 0 12 34 11 90 -2 78 -18 199 -36 194 -28 -2 4 -17 10 -34 14
-31 7 -89 50 -247 183 -54 46 -123 97 -154 112 -59 30 -73 48 -62 78 20 55 73
59 118 8z m1515 -51 c0 -5 -5 -3 -10 5 -5 8 -10 20 -10 25 0 6 5 3 10 -5 5 -8
10 -19 10 -25z m-2250 -46 c0 -24 -30 -39 -77 -39 -22 0 -44 -5 -51 -12 -9 -9
-12 -9 -12 0 0 7 8 19 19 28 12 10 17 24 13 37 -5 21 -5 21 18 -1 13 -12 27
-22 31 -22 15 0 29 29 22 46 -6 18 -6 18 15 0 12 -11 22 -27 22 -37z m2240 27
c0 -2 -8 -10 -17 -17 -16 -13 -17 -12 -4 4 13 16 21 21 21 13z m470 -20 c0 -3
-34 -26 -76 -52 -60 -37 -78 -44 -87 -34 -8 8 -8 14 -2 17 6 2 44 19 85 37 89
40 80 37 80 32z m-1943 -274 c100 -190 178 -268 300 -301 30 -8 44 -21 66 -58
16 -26 27 -56 25 -68 -3 -13 15 -52 48 -106 29 -46 50 -87 46 -91 -11 -10
-290 -158 -299 -158 -4 0 -24 40 -44 88 -23 55 -44 91 -57 97 -12 5 -31 32
-43 60 -19 44 -20 55 -10 97 36 138 17 220 -104 459 -93 183 -94 186 -72 196
26 12 22 16 144 -215z m1953 224 c0 -7 -129 -86 -139 -86 -5 0 -13 5 -16 10
-3 6 27 25 67 44 73 34 88 40 88 32z m-661 -70 c0 -19 -1 -19 -10 3 -7 17 -13
21 -20 14 -15 -15 -6 -49 12 -45 11 3 12 1 1 -10 -11 -11 -14 -10 -22 2 -25
39 1 109 27 73 7 -9 13 -26 12 -37z m-68 21 c-1 -12 -15 -9 -19 4 -3 6 1 10 8
8 6 -3 11 -8 11 -12z m99 3 c0 -5 -4 -10 -10 -10 -5 0 -10 5 -10 10 0 6 5 10
10 10 6 0 10 -4 10 -10z m590 -39 c-73 -47 -90 -53 -90 -28 0 11 129 74 155
76 6 0 -24 -21 -65 -48z m-700 9 c21 -21 27 -60 9 -60 -19 0 -48 20 -59 40
-22 40 15 55 50 20z m157 5 c5 -16 -22 -55 -39 -55 -5 0 -2 7 6 16 19 19 12
35 -12 28 -14 -5 -14 -3 2 10 25 20 35 20 43 1z m633 -9 c0 -6 -127 -85 -142
-88 -7 -2 -13 3 -13 11 0 7 34 29 75 47 82 37 80 36 80 30z m-1205 -68 c25
-30 30 -54 19 -95 -9 -33 -40 -29 -80 11 -34 34 -44 78 -28 119 8 22 57 3 89
-35z m365 29 c0 -6 14 -18 30 -26 25 -10 28 -16 19 -27 -6 -8 -19 -13 -28 -13
-13 1 -13 2 2 6 26 7 20 23 -9 23 -19 0 -25 -4 -20 -15 3 -9 0 -15 -9 -15 -20
0 -29 19 -16 34 7 8 11 18 10 22 -3 16 1 24 11 24 6 0 10 -6 10 -13z m217 -6
c-3 -13 1 -21 14 -24 11 -3 19 -10 19 -17 0 -7 -8 -14 -19 -17 -13 -3 -17 -11
-14 -24 3 -10 1 -19 -5 -19 -6 0 -8 -8 -5 -19 11 -44 -39 -35 -63 11 -19 37
-12 45 26 31 37 -14 40 -1 4 16 -25 11 -29 31 -6 39 7 2 10 -2 6 -12 -5 -12 0
-16 20 -16 30 0 33 8 9 26 -11 8 -13 13 -6 14 7 0 10 7 7 15 -4 8 -1 15 6 15
7 0 10 -8 7 -19z m580 -42 c-57 -37 -82 -48 -90 -40 -14 14 -15 13 73 54 104
49 108 45 17 -14z m-669 29 c30 -30 -4 -77 -41 -57 -29 17 -15 69 18 69 6 0
16 -5 23 -12z m762 -22 c0 -3 -34 -26 -76 -52 -60 -38 -78 -44 -84 -33 -7 10
5 20 48 39 31 14 68 31 82 37 30 14 30 14 30 9z m-1146 -32 c15 -38 -36 -106
-65 -88 -17 10 -1 67 24 86 27 22 33 22 41 2z m251 -14 c3 -5 1 -10 -4 -10 -6
0 -11 5 -11 10 0 6 2 10 4 10 3 0 8 -4 11 -10z m75 -7 c0 -23 -29 -53 -52 -53
-21 0 -25 32 -4 49 11 9 12 6 8 -15 -4 -24 -3 -25 17 -15 23 13 28 37 9 44 -8
3 -6 6 5 6 10 1 17 -6 17 -16z m776 -33 c-81 -53 -96 -58 -96 -36 0 11 139 84
164 86 5 0 -26 -22 -68 -50z m-720 6 c9 -37 1 -61 -21 -61 -15 0 -21 8 -23 28
-2 16 -1 35 2 43 9 23 35 16 42 -10z m794 -10 c0 -1 -31 -24 -69 -49 -59 -39
-70 -44 -76 -29 -3 9 -3 18 2 19 4 2 35 16 68 32 58 29 75 35 75 27z m-1299
-35 c24 -20 24 -20 4 -35 -27 -21 -54 -20 -88 3 l-29 19 23 16 c31 21 62 20
90 -3z m449 9 c0 -5 -4 -10 -10 -10 -5 0 -10 5 -10 10 0 6 5 10 10 10 6 0 10
-4 10 -10z m90 0 c0 -5 -4 -10 -10 -10 -5 0 -10 5 -10 10 0 6 5 10 10 10 6 0
10 -4 10 -10z m800 -4 c0 -2 -24 -19 -52 -38 -113 -74 -105 -70 -112 -53 -4
12 13 25 77 55 93 44 87 41 87 36z m-2234 -151 c10 -8 31 -15 45 -15 48 0 93
-74 58 -95 -7 -5 -5 -15 6 -31 14 -21 14 -28 1 -59 -9 -20 -23 -36 -33 -36
-10 -1 -25 -2 -34 -3 -8 -1 -23 -9 -33 -18 -25 -26 -81 -23 -100 4 -9 12 -16
29 -16 36 0 8 -11 23 -25 34 -35 27 -35 81 0 104 14 9 28 27 31 40 7 27 39 54
64 54 9 0 25 -7 36 -15z m646 -75 c48 -14 98 -66 122 -126 49 -127 96 -171
160 -153 38 11 56 34 56 70 0 55 -71 82 -78 30 -3 -20 0 -23 18 -18 14 3 20 1
17 -6 -6 -19 -33 -20 -51 -2 -20 21 -20 28 2 56 27 32 76 30 110 -5 75 -75
-10 -217 -130 -216 -84 1 -158 66 -204 179 -38 97 -62 131 -106 151 -41 18
-39 25 10 40 36 11 32 11 74 0z m-1024 -122 c17 -17 16 -78 -1 -78 -18 0 -57
38 -57 55 0 8 8 19 18 24 22 13 26 13 40 -1z m-170 -100 c18 -18 15 -36 -7
-48 -15 -7 -23 -6 -35 6 -12 12 -13 20 -6 35 12 22 30 25 48 7z m171 -40 c14
-25 14 -29 -5 -55 -30 -40 -74 -43 -95 -6 -18 29 -11 69 14 85 25 17 71 4 86
-24z m405 -17 c-8 -40 23 -103 86 -176 61 -71 77 -100 86 -152 18 -113 -88
-225 -190 -199 -71 18 -106 98 -66 149 26 33 65 36 80 6 12 -22 7 -49 -9 -49
-5 0 -7 9 -4 20 4 16 0 20 -20 20 -17 0 -28 -7 -32 -20 -23 -73 83 -105 129
-38 32 45 16 93 -62 188 -25 30 -51 69 -58 87 -28 65 -11 143 38 177 29 21 28
21 22 -13z m-324 -57 c0 -9 -7 -14 -17 -12 -25 5 -28 28 -4 28 12 0 21 -6 21
-16z m1025 -31 c45 -67 30 -97 -62 -127 -61 -20 -99 -48 -89 -64 4 -6 22 -14
41 -18 61 -11 49 -30 -53 -88 -89 -50 -112 -47 -90 12 9 23 9 35 1 43 -16 16
-47 3 -99 -42 -49 -42 -83 -49 -109 -22 -18 18 -35 56 -35 80 0 13 3 13 15 3
12 -10 16 -9 20 2 4 10 15 13 31 10 13 -2 24 0 24 6 0 6 9 8 20 5 11 -3 20 0
20 6 0 6 11 11 25 11 16 0 25 6 25 16 0 13 3 14 14 5 10 -9 16 -8 26 4 7 8 19
15 27 15 7 0 16 7 19 15 4 8 11 12 17 8 5 -3 15 1 21 9 6 8 19 17 29 21 10 4
16 11 12 16 -3 5 5 11 17 13 13 2 22 9 21 16 -2 6 6 12 17 12 11 0 20 6 20 14
0 7 10 16 21 19 15 4 20 11 16 21 -12 30 12 16 38 -21z m-1205 -16 c0 -7 9
-18 20 -25 24 -15 25 -25 4 -46 -26 -26 -51 -5 -51 44 0 27 4 40 13 40 8 0 14
-6 14 -13z"/>
<path d="M1899 4623 c-13 -17 -13 -17 6 -3 11 8 22 16 24 17 2 2 0 3 -6 3 -6
0 -17 -8 -24 -17z"/>
<path d="M2565 4049 c165 -170 170 -174 208 -172 l39 2 -18 -22 c-11 -12 -36
-41 -56 -64 -21 -24 -38 -47 -38 -51 0 -5 9 -21 21 -36 31 -40 61 -34 106 22
82 100 91 132 46 174 -23 21 -404 279 -463 313 -8 5 61 -70 155 -166z"/>
<path d="M2628 3640 c-9 -6 -41 -46 -72 -89 -37 -53 -72 -90 -105 -112 -57
-37 -64 -44 -23 -27 47 20 97 61 146 118 26 30 66 67 88 83 23 15 44 30 47 32
9 9 -64 4 -81 -5z"/>
<path d="M3364 4046 c-11 -28 1 -51 25 -51 28 0 47 25 38 49 -8 20 -56 21 -63
2z"/>
<path d="M2190 4000 c30 -27 60 -49 65 -49 6 0 -15 22 -45 49 -30 27 -59 49
-65 50 -5 0 15 -22 45 -50z"/>
<path d="M2180 3980 c30 -28 50 -50 44 -50 -5 0 -23 14 -39 30 -16 17 -34 30
-39 30 -6 -1 9 -18 32 -40 35 -31 46 -37 57 -27 11 10 4 20 -38 59 -29 26 -56
47 -62 47 -5 0 15 -22 45 -49z"/>
<path d="M2110 3975 c13 -14 28 -25 33 -25 6 0 0 11 -13 25 -13 14 -28 25 -33
25 -6 0 0 -11 13 -25z"/>
<path d="M2110 3880 c30 -28 46 -47 35 -43 -18 6 -19 5 -6 -11 14 -16 15 -16
24 0 8 14 0 26 -39 60 -27 24 -53 43 -59 43 -5 0 15 -22 45 -49z"/>
<path d="M2140 3704 c-200 -273 -229 -315 -203 -289 57 56 393 457 393 469 0
20 -11 46 -19 46 -4 0 -81 -102 -171 -226z"/>
<path d="M2100 3825 c13 -14 28 -25 33 -25 6 0 0 11 -13 25 -13 14 -28 25 -33
25 -6 0 0 -11 13 -25z"/>
<path d="M2029 3791 c25 -22 38 -40 31 -43 -8 -2 -7 -8 6 -18 16 -14 17 -13
11 4 -6 14 -4 17 10 12 10 -4 -4 14 -32 38 -27 25 -54 45 -60 45 -5 0 10 -17
34 -38z"/>
<path d="M2056 3799 c10 -11 28 -26 39 -31 14 -8 12 -2 -9 21 -33 34 -61 44
-30 10z"/>
<path d="M1990 3760 c30 -27 60 -49 65 -49 6 0 -15 22 -45 49 -30 27 -59 49
-65 49 -5 0 15 -22 45 -49z"/>
<path d="M2100 3795 c7 -8 17 -15 22 -15 6 0 5 7 -2 15 -7 8 -17 15 -22 15 -6
0 -5 -7 2 -15z"/>
<path d="M1925 3690 c16 -16 33 -30 39 -30 5 0 -3 14 -19 30 -16 17 -33 30
-39 30 -5 0 3 -13 19 -30z"/>
<path d="M1874 3671 c17 -17 34 -31 39 -31 14 0 -23 39 -48 52 -14 8 -12 2 9
-21z"/>
<path d="M1931 3654 c13 -14 33 -30 44 -36 12 -6 6 4 -14 26 -19 20 -39 36
-45 36 -5 0 1 -12 15 -26z"/>
<path d="M1890 3625 c13 -14 28 -25 33 -25 6 0 0 11 -13 25 -13 14 -28 25 -33
25 -6 0 0 -11 13 -25z"/>
<path d="M1941 3614 c21 -22 21 -24 4 -18 -16 6 -18 5 -7 -7 9 -10 15 -10 24
-1 9 9 7 16 -7 32 -10 11 -23 20 -28 20 -6 0 0 -11 14 -26z"/>
<path d="M1900 3585 c13 -14 28 -25 33 -25 6 0 0 11 -13 25 -13 14 -28 25 -33
25 -6 0 0 -11 13 -25z"/>
<path d="M1790 3490 c25 -22 39 -40 32 -40 -7 0 -10 -4 -7 -10 3 -5 11 -10 16
-10 6 0 7 5 4 10 -3 6 0 10 7 10 7 0 -7 18 -32 40 -25 21 -49 39 -55 39 -5 0
10 -18 35 -39z"/>
<path d="M1750 3460 c30 -28 46 -47 35 -43 -18 6 -18 5 -7 -10 11 -13 17 -14
28 -4 11 10 4 20 -39 59 -29 26 -56 47 -62 47 -5 0 15 -22 45 -49z"/>
<path d="M1775 3470 c10 -11 23 -20 28 -20 6 0 2 9 -8 20 -10 11 -23 20 -28
20 -6 0 -2 -9 8 -20z"/>
<path d="M1705 3435 c28 -25 59 -50 70 -56 11 -5 -7 15 -40 45 -33 31 -64 56
-70 56 -5 0 13 -21 40 -45z"/>
<path d="M958 3145 c-88 -48 -91 -211 -4 -264 66 -41 172 -35 213 12 18 19 17
20 -4 8 -31 -16 -129 -14 -164 4 -65 34 -89 128 -49 192 11 19 31 35 47 39 15
3 33 7 38 8 6 2 22 -6 38 -16 20 -15 27 -28 27 -54 0 -19 -4 -34 -9 -34 -4 0
-6 10 -4 23 5 26 -18 50 -43 45 -9 -2 -26 -15 -37 -29 -17 -24 -18 -30 -6 -55
21 -42 61 -59 97 -40 30 15 52 53 52 87 0 12 -15 36 -34 55 -30 30 -40 34 -82
34 -27 -1 -61 -7 -76 -15z"/>
<path d="M1584 3636 c-12 -31 0 -51 31 -51 27 0 30 3 30 30 0 25 -4 30 -28 33
-17 2 -29 -2 -33 -12z"/>
<path d="M3171 3434 c0 -11 3 -14 6 -6 3 7 2 16 -1 19 -3 4 -6 -2 -5 -13z"/>
<path d="M3131 3424 c0 -11 3 -14 6 -6 3 7 2 16 -1 19 -3 4 -6 -2 -5 -13z"/>
<path d="M3051 3414 c0 -11 3 -14 6 -6 3 7 2 16 -1 19 -3 4 -6 -2 -5 -13z"/>
<path d="M3091 3414 c0 -11 3 -14 6 -6 3 7 2 16 -1 19 -3 4 -6 -2 -5 -13z"/>
<path d="M3071 3404 c0 -11 3 -14 6 -6 3 7 2 16 -1 19 -3 4 -6 -2 -5 -13z"/>
<path d="M3014 3400 c2 -16 20 -14 24 2 3 10 2 10 -6 -1 -7 -9 -11 -10 -15 -2
-4 7 -5 8 -3 1z"/>
<path d="M3571 3374 c0 -11 3 -14 6 -6 3 7 2 16 -1 19 -3 4 -6 -2 -5 -13z"/>
<path d="M3531 3364 c0 -11 3 -14 6 -6 3 7 2 16 -1 19 -3 4 -6 -2 -5 -13z"/>
<path d="M2545 3204 c-219 -44 -288 -62 -235 -58 133 10 432 44 469 54 38 10
117 70 91 68 -8 0 -154 -29 -325 -64z"/>
<path d="M2584 3458 l-19 -23 23 19 c21 18 27 26 19 26 -2 0 -12 -10 -23 -22z"/>
<path d="M1960 3309 c0 -32 -6 -46 -25 -61 -33 -25 -32 -35 5 -43 20 -4 36
-17 46 -38 9 -18 18 -34 21 -36 2 -3 17 10 33 27 20 23 38 32 59 32 36 0 38 8
11 43 -17 21 -18 30 -9 56 14 40 8 46 -32 32 -27 -9 -37 -8 -64 9 -18 11 -35
20 -39 20 -3 0 -6 -18 -6 -41z"/>
<path d="M3425 3135 c-5 -2 -23 -6 -38 -9 -47 -11 -86 -103 -59 -142 16 -24
59 -44 92 -44 45 0 78 23 97 67 12 31 12 38 -4 71 -17 34 -63 64 -88 57z"/>
<path d="M3105 3040 c-3 -5 -1 -10 4 -10 6 0 11 5 11 10 0 6 -2 10 -4 10 -3 0
-8 -4 -11 -10z"/>
<path d="M2728 2923 c7 -3 16 -2 19 1 4 3 -2 6 -13 5 -11 0 -14 -3 -6 -6z"/>
<path d="M3010 2855 c-11 -13 -11 -19 3 -32 21 -21 49 -9 45 19 -4 28 -30 35
-48 13z"/>
<path d="M3214 2561 c-50 -22 -71 -102 -38 -149 22 -32 71 -54 103 -47 32 7
65 39 76 73 8 28 -10 84 -34 106 -23 20 -78 29 -107 17z"/>
<path d="M2304 2891 c7 -11 46 -35 46 -28 0 3 -12 12 -26 22 -15 9 -23 12 -20
6z"/>
<path d="M2390 2835 c0 -1 38 -31 85 -65 47 -34 89 -70 95 -79 7 -13 11 -14
22 -3 11 11 8 18 -17 38 -29 24 -185 116 -185 109z"/>
<path d="M2685 2686 l-40 -12 55 -37 c30 -20 56 -33 58 -29 5 15 -14 86 -23
88 -6 1 -28 -3 -50 -10z"/>
<path d="M2596 2661 c32 -29 447 -316 492 -340 39 -21 24 6 -21 36 -23 15 -92
63 -152 106 -241 170 -296 207 -312 207 -10 0 -13 -3 -7 -9z"/>
<path d="M2285 2410 c13 -51 24 -136 20 -160 -21 -139 -17 -152 37 -129 29 12
30 14 25 60 -6 51 -50 188 -74 229 l-14 25 6 -25z"/>
<path d="M2585 2171 c-6 -6 -22 -16 -37 -24 l-27 -14 34 -54 c40 -62 43 -60
14 6 -11 25 -19 49 -16 51 2 3 18 -17 36 -43 36 -56 39 -53 10 12 -27 62 -18
69 16 11 33 -56 41 -59 19 -8 -9 20 -18 45 -21 55 -6 19 -14 22 -28 8z"/>
<path d="M2497 2123 c-4 -6 6 -27 20 -49 40 -61 46 -63 23 -9 -24 56 -35 71
-43 58z"/>
<path d="M2460 2106 c0 -7 62 -106 66 -106 5 0 -12 44 -31 80 -13 25 -35 41
-35 26z"/>
<path d="M2436 2092 c-5 -9 43 -96 50 -89 5 4 -34 97 -41 97 -2 0 -6 -4 -9 -8z"/>
<path d="M2400 2074 c0 -10 52 -95 56 -91 8 7 -35 97 -46 97 -5 0 -10 -3 -10
-6z"/>
<path d="M2376 2061 c-6 -8 49 -111 59 -111 4 0 -44 112 -50 118 -2 2 -6 -1
-9 -7z"/>
<path d="M2346 2041 c-6 -9 40 -91 50 -91 5 0 -27 83 -36 93 -4 5 -11 4 -14
-2z"/>
<path d="M3410 2766 c0 -9 9 -20 20 -26 16 -8 20 -8 20 4 0 9 -9 20 -20 26
-16 8 -20 8 -20 -4z"/>
<path d="M3542 2633 c2 -10 11 -19 21 -21 12 -2 15 1 11 12 -8 22 -36 30 -32
9z"/>
<path d="M3487 2624 c-10 -11 -8 -44 2 -44 6 0 13 4 16 10 8 12 -9 43 -18 34z"/>
<path d="M2041 2392 c-6 -12 -11 -27 -11 -35 0 -8 -9 -17 -20 -20 -10 -3 -22
-17 -26 -33 -6 -22 -2 -32 19 -50 15 -13 27 -31 27 -42 0 -43 69 -60 92 -22 8
13 19 18 34 14 40 -10 73 53 43 83 -8 8 -8 17 1 33 16 30 -9 66 -52 73 -18 3
-47 9 -65 13 -25 5 -33 2 -42 -14z m109 -52 c40 -40 11 -110 -47 -110 -37 0
-63 27 -63 66 0 57 69 85 110 44z"/>
<path d="M2067 2332 c-33 -36 -11 -92 35 -92 52 0 77 66 36 94 -29 21 -51 20
-71 -2z"/>
<path d="M3775 4180 c-26 -29 -24 -84 4 -114 29 -30 92 -48 158 -44 l52 3 -20
44 c-11 25 -36 64 -55 88 -32 38 -40 43 -78 43 -31 0 -48 -6 -61 -20z"/>
<path d="M1610 1460 c-1 -169 -129 -375 -321 -520 -115 -86 -197 -132 -374
-210 -199 -87 -282 -137 -356 -212 -100 -102 -158 -254 -159 -421 l0 -57 1002
2 1002 3 8 30 c16 51 12 186 -6 248 -34 117 -142 197 -267 197 -83 0 -145 -21
-199 -68 -34 -29 -40 -31 -30 -13 25 47 91 108 147 137 51 25 69 29 143 29
109 0 169 -26 240 -101 84 -89 128 -214 133 -377 l2 -82 74 -3 c41 -2 78 1 82
5 11 11 -6 171 -26 248 -26 102 -89 220 -152 286 -121 127 -284 165 -487 113
-161 -41 -351 -176 -638 -451 -58 -57 -109 -103 -111 -103 -3 0 20 37 50 83
116 175 220 418 265 624 37 167 29 568 -13 643 -6 10 -9 0 -9 -30z"/>
</g>
</svg>
