<?xml version="1.0" standalone="no"?>
<!DOCTYPE svg PUBLIC "-//W3C//DTD SVG 20010904//EN"
 "http://www.w3.org/TR/2001/REC-SVG-20010904/DTD/svg10.dtd">
<svg version="1.0" xmlns="http://www.w3.org/2000/svg"
 width="191.000000pt" height="263.000000pt" viewBox="0 0 191.000000 263.000000"
 preserveAspectRatio="xMidYMid meet">

<g transform="translate(0.000000,263.000000) scale(0.100000,-0.100000)"
fill="#000000" stroke="none">
<path d="M946 2513 l32 -4 4 -82 c5 -82 40 -193 59 -182 4 3 -6 35 -23 71 -27
57 -30 73 -26 134 l4 70 -41 -2 c-35 -1 -36 -2 -9 -5z"/>
<path d="M827 2484 c-26 -14 -65 -41 -85 -62 -21 -20 -57 -50 -80 -66 -23 -16
-60 -49 -83 -73 -42 -46 -99 -154 -99 -188 1 -11 8 3 18 30 27 78 67 139 124
189 29 25 54 44 56 41 2 -2 -7 -34 -22 -72 -36 -95 -49 -195 -38 -279 10 -67
9 -70 -17 -98 -14 -16 0 -8 32 19 52 45 72 65 47 50 -5 -3 -10 -2 -10 3 0 23
43 132 69 173 28 45 83 159 77 159 -2 0 -27 -41 -55 -90 -51 -91 -111 -228
-111 -255 0 -8 -4 -15 -10 -15 -6 0 -10 41 -10 103 0 236 94 397 260 448 20 6
21 7 5 8 -11 0 -42 -11 -68 -25z"/>
<path d="M911 2324 c0 -11 3 -14 6 -6 3 7 2 16 -1 19 -3 4 -6 -2 -5 -13z"/>
<path d="M1046 2232 c-3 -5 1 -9 9 -9 8 0 12 4 9 9 -3 4 -7 8 -9 8 -2 0 -6 -4
-9 -8z"/>
<path d="M866 2194 c-22 -8 -42 -17 -45 -21 -7 -7 44 2 72 12 13 6 17 2 17
-17 0 -28 29 -132 35 -126 2 2 -2 26 -10 53 -8 26 -15 61 -15 76 0 25 4 28 43
32 41 3 41 4 -8 5 -27 0 -68 -6 -89 -14z"/>
<path d="M1080 2196 c0 -2 8 -10 18 -17 15 -13 16 -12 3 4 -13 16 -21 21 -21
13z"/>
<path d="M1120 2147 c0 -2 15 -16 33 -33 l32 -29 -29 33 c-28 30 -36 37 -36
29z"/>
<path d="M1136 2080 c23 -33 227 -280 232 -280 3 0 -2 8 -10 18 -8 9 -59 71
-113 137 -92 114 -132 160 -109 125z"/>
<path d="M473 2035 c0 -22 2 -30 4 -17 2 12 2 30 0 40 -3 9 -5 -1 -4 -23z"/>
<path d="M1225 2030 c21 -22 41 -40 44 -40 3 0 -13 18 -34 40 -21 22 -41 40
-44 40 -3 0 13 -18 34 -40z"/>
<path d="M736 2043 c-6 -14 -5 -15 5 -6 7 7 10 15 7 18 -3 3 -9 -2 -12 -12z"/>
<path d="M801 2022 c0 -12 -8 -25 -16 -28 -22 -9 -18 -24 6 -24 12 0 17 -4 13
-11 -5 -8 -1 -8 14 0 26 14 45 14 36 0 -3 -6 8 -3 26 6 18 9 29 12 26 6 -10
-15 5 -13 28 4 18 14 16 15 -30 15 -68 0 -92 9 -97 34 -4 20 -4 20 -6 -2z"/>
<path d="M961 1995 c0 -5 8 -26 19 -45 11 -19 19 -30 19 -25 0 6 -8 26 -19 45
-11 19 -19 31 -19 25z"/>
<path d="M473 1940 c0 -25 2 -35 4 -22 2 12 2 32 0 45 -2 12 -4 2 -4 -23z"/>
<path d="M1335 1910 c10 -11 20 -20 23 -20 3 0 -3 9 -13 20 -10 11 -20 20 -23
20 -3 0 3 -9 13 -20z"/>
<path d="M1015 1880 c9 -16 18 -30 21 -30 2 0 -2 14 -11 30 -9 17 -18 30 -21
30 -2 0 2 -13 11 -30z"/>
<path d="M481 1874 c0 -11 3 -14 6 -6 3 7 2 16 -1 19 -3 4 -6 -2 -5 -13z"/>
<path d="M605 1830 c10 -11 20 -20 23 -20 3 0 -3 9 -13 20 -10 11 -20 20 -23
20 -3 0 3 -9 13 -20z"/>
<path d="M981 1847 c-1 -5 17 -61 38 -125 50 -149 67 -234 70 -348 3 -107 -12
-202 -41 -258 -35 -68 -114 -141 -229 -211 -177 -108 -252 -187 -310 -327 -36
-88 -39 -171 -8 -234 11 -23 26 -47 33 -53 7 -6 0 15 -16 47 -54 104 -28 204
64 252 36 18 38 21 13 15 -16 -4 -38 -14 -48 -22 -27 -25 -27 -12 -1 44 32 66
104 131 193 174 84 40 88 51 6 14 -32 -14 -60 -24 -62 -22 -6 6 54 48 159 110
114 69 178 133 221 225 32 66 32 68 32 222 0 137 -3 166 -27 250 -26 93 -86
263 -87 247z"/>
<path d="M1410 1825 c13 -14 26 -25 28 -25 3 0 -5 11 -18 25 -13 14 -26 25
-28 25 -3 0 5 -11 18 -25z"/>
<path d="M1370 1786 c0 -2 8 -10 18 -17 15 -13 16 -12 3 4 -13 16 -21 21 -21
13z"/>
<path d="M527 1720 c14 -78 9 -182 -10 -217 -23 -43 -56 -73 -81 -74 -18 -1
-18 -2 -3 -6 49 -13 103 64 115 163 l8 69 12 -53 c24 -108 9 -187 -42 -210
-12 -5 -32 -15 -46 -21 -24 -11 -24 -11 5 -6 17 3 41 14 55 24 27 19 73 103
61 111 -5 3 -11 28 -14 55 -3 28 -20 86 -37 130 -25 66 -29 72 -23 35z"/>
<path d="M1519 1699 c65 -90 100 -169 113 -259 14 -96 -4 -166 -63 -240 -37
-47 -150 -140 -170 -140 -5 0 11 30 36 67 110 164 128 343 50 498 -19 39 -47
84 -60 100 -19 22 -16 14 10 -30 125 -213 110 -395 -50 -610 -29 -38 -67 -83
-85 -100 l-33 -30 6 25 c3 14 13 59 22 100 22 96 15 237 -15 335 -21 65 -95
225 -104 225 -3 0 15 -42 39 -92 45 -97 85 -237 85 -297 0 -44 -21 -123 -44
-171 -16 -33 -8 -27 22 17 12 17 12 17 8 -2 -47 -219 -165 -376 -334 -445 -26
-10 -40 -19 -31 -19 9 -1 49 15 89 35 87 44 160 115 214 208 44 76 102 132
179 172 242 126 309 310 197 539 -22 44 -60 103 -85 130 l-45 50 49 -66z"/>
<path d="M617 1698 c-3 -8 5 -14 20 -14 13 -1 23 -1 21 0 -2 1 -10 7 -19 14
-13 10 -18 10 -22 0z"/>
<path d="M610 1521 c0 -5 5 -13 10 -16 6 -3 10 -2 10 4 0 5 -4 13 -10 16 -5 3
-10 2 -10 -4z"/>
<path d="M968 1483 c6 -2 18 -2 25 0 6 3 1 5 -13 5 -14 0 -19 -2 -12 -5z"/>
<path d="M878 1473 c7 -3 16 -2 19 1 4 3 -2 6 -13 5 -11 0 -14 -3 -6 -6z"/>
<path d="M828 1463 c7 -3 16 -2 19 1 4 3 -2 6 -13 5 -11 0 -14 -3 -6 -6z"/>
<path d="M743 1453 c9 -2 23 -2 30 0 6 3 -1 5 -18 5 -16 0 -22 -2 -12 -5z"/>
<path d="M1169 973 c-13 -16 -12 -17 4 -4 9 7 17 15 17 17 0 8 -8 3 -21 -13z"/>
<path d="M1060 920 c-8 -5 -10 -10 -5 -10 6 0 17 5 25 10 8 5 11 10 5 10 -5 0
-17 -5 -25 -10z"/>
<path d="M868 623 c6 -2 18 -2 25 0 6 3 1 5 -13 5 -14 0 -19 -2 -12 -5z"/>
<path d="M688 613 c28 -2 76 -2 105 0 28 2 5 3 -53 3 -58 0 -81 -1 -52 -3z"/>
</g>
</svg>
