<?xml version="1.0" standalone="no"?>
<!DOCTYPE svg PUBLIC "-//W3C//DTD SVG 20010904//EN"
 "http://www.w3.org/TR/2001/REC-SVG-20010904/DTD/svg10.dtd">
<svg version="1.0" xmlns="http://www.w3.org/2000/svg"
 width="600.000000pt" height="600.000000pt" viewBox="0 0 600.000000 600.000000"
 preserveAspectRatio="xMidYMid meet">

<g transform="translate(0.000000,600.000000) scale(0.100000,-0.100000)"
fill="#000000" stroke="none">
<path d="M2563 5761 c-75 -19 -136 -71 -176 -147 -36 -70 -72 -264 -48 -264 4
0 18 27 31 61 45 124 133 179 264 164 94 -10 166 -39 366 -145 275 -145 450
-207 650 -230 260 -30 347 66 261 287 -18 45 -40 92 -50 104 l-18 22 -43 -57
c-65 -86 -101 -101 -235 -101 -178 1 -289 36 -582 184 -218 110 -334 144 -420
122z"/>
<path d="M2554 5466 c-47 -21 -99 -89 -124 -164 -25 -76 -42 -312 -22 -312 6
0 13 8 16 18 12 38 55 67 97 66 43 -2 71 -21 97 -69 25 -44 21 -195 -7 -315
-40 -168 -59 -263 -71 -360 -53 -410 163 -729 540 -799 58 -11 146 -27 196
-36 152 -28 205 -71 212 -175 6 -76 -9 -133 -59 -239 -51 -106 -61 -131 -50
-131 28 0 163 135 223 223 95 140 127 258 94 353 -22 66 -21 86 4 55 33 -39
53 -126 48 -205 -9 -136 -100 -272 -323 -481 -157 -147 -209 -215 -225 -292
-41 -194 148 -426 388 -478 45 -9 41 8 -11 44 -97 67 -163 177 -155 259 6 66
34 117 92 174 69 67 124 102 321 202 351 177 562 384 605 593 26 121 -25 264
-133 380 -91 97 -257 226 -273 210 -2 -2 23 -32 56 -66 33 -35 74 -91 92 -128
28 -58 33 -79 36 -162 3 -77 1 -105 -14 -136 l-17 -40 -9 98 c-10 120 -33 189
-91 270 -104 143 -188 202 -487 340 -160 73 -303 178 -434 319 -151 162 -206
281 -269 583 -43 206 -65 269 -119 329 -69 79 -149 105 -224 72z"/>
<path d="M2983 5098 c6 -109 30 -233 60 -303 33 -81 105 -182 182 -259 149
-147 320 -248 609 -361 295 -115 379 -165 531 -319 176 -177 208 -296 141
-521 -48 -161 -45 -167 46 -74 201 206 268 453 174 643 -35 71 -107 156 -180
212 l-38 30 42 40 c69 64 81 77 100 115 39 75 35 183 -12 329 -38 119 -187
399 -253 475 l-26 30 8 -55 c4 -30 8 -84 8 -120 0 -56 -5 -71 -30 -107 -34
-47 -91 -82 -180 -110 -49 -15 -92 -18 -245 -17 -160 0 -202 4 -311 27 -146
31 -281 76 -359 120 -87 49 -170 139 -215 235 -22 45 -44 82 -49 82 -5 0 -6
-40 -3 -92z"/>
<path d="M1856 4224 c-52 -16 -96 -41 -96 -54 0 -4 51 -7 113 -7 108 1 115 0
202 -36 49 -20 161 -80 248 -133 l160 -97 18 24 c31 41 25 83 -21 129 -44 44
-182 115 -305 156 -101 34 -244 42 -319 18z"/>
<path d="M1734 3924 c4 -21 29 -84 56 -140 28 -55 50 -106 50 -112 0 -8 -19
-12 -50 -12 -56 0 -66 -15 -20 -31 31 -11 41 -29 15 -29 -44 0 27 -80 103
-116 84 -40 182 -45 253 -12 71 33 169 108 192 147 21 36 21 37 -61 11 -109
-34 -199 -23 -280 36 -53 38 -74 70 -80 120 -4 40 -2 44 22 54 63 23 187 7
289 -38 52 -23 61 -14 21 23 -40 37 -110 74 -194 102 -58 19 -103 26 -199 30
l-124 6 7 -39z"/>
<path d="M1343 3848 c-80 -88 -79 -204 5 -334 43 -67 119 -150 128 -141 3 3
-11 35 -30 70 -50 89 -96 219 -96 270 0 23 7 64 15 91 23 74 17 86 -22 44z"/>
<path d="M2524 2974 c3 -9 6 -17 6 -20 0 -8 60 -34 80 -34 27 0 25 12 -6 44
-31 30 -91 38 -80 10z"/>
<path d="M3930 2764 c-221 -74 -386 -177 -430 -269 -22 -45 -22 -47 -6 -90 10
-25 37 -62 65 -88 79 -74 259 -153 328 -145 26 3 24 5 -30 36 -105 59 -126
143 -64 263 32 63 152 193 262 286 l50 42 -35 0 c-19 0 -82 -15 -140 -35z"/>
<path d="M2531 2739 c-13 -5 -45 -25 -70 -43 -25 -18 -71 -46 -101 -61 l-55
-28 50 -44 c73 -64 180 -133 249 -161 75 -30 112 -25 215 28 75 39 233 151
239 169 2 5 -19 21 -47 34 -27 14 -80 46 -117 71 -78 54 -108 57 -171 20 l-44
-25 -30 25 c-32 27 -74 33 -118 15z"/>
<path d="M3070 2517 c-135 -130 -108 -385 64 -605 91 -115 166 -162 500 -316
183 -84 361 -226 421 -336 25 -46 30 -66 30 -125 0 -95 -33 -153 -142 -253
-46 -41 -81 -77 -79 -79 8 -8 134 51 230 109 194 117 506 338 642 456 81 70
173 186 198 250 44 115 -7 208 -150 273 -130 59 -300 89 -614 108 -469 29
-623 59 -804 154 -144 77 -210 163 -242 318 -8 41 -16 75 -18 76 -1 2 -17 -12
-36 -30z"/>
<path d="M1920 2535 c-1 -56 127 -373 379 -935 48 -107 93 -182 104 -170 2 3
-2 39 -10 80 -8 41 -15 116 -15 165 -1 75 2 98 21 137 41 84 104 126 229 151
l67 14 -175 85 c-206 101 -340 195 -445 312 -127 143 -155 171 -155 161z"/>
<path d="M3528 1548 c63 -92 85 -149 86 -218 2 -113 -58 -186 -210 -261 -143
-69 -309 -102 -704 -139 -242 -22 -361 -41 -445 -70 -202 -70 -205 -163 -9
-282 60 -37 212 -103 220 -96 2 2 -5 28 -16 56 -11 29 -20 66 -20 83 0 100
139 151 420 152 143 1 195 -13 121 -33 -24 -6 -76 -18 -117 -25 -218 -42 -294
-84 -294 -165 0 -77 95 -149 267 -203 160 -51 527 -134 553 -125 6 2 -33 35
-87 73 -150 107 -191 177 -145 247 39 60 107 95 332 173 274 95 371 144 444
225 113 125 91 296 -57 442 -88 87 -290 208 -348 208 -19 0 -18 -3 9 -42z"/>
<path d="M2055 1425 c-96 -46 -158 -56 -412 -65 -253 -10 -354 -24 -429 -60
-137 -67 -182 -209 -134 -431 27 -127 87 -319 101 -319 6 0 7 63 3 168 -7 180
1 256 36 328 62 127 190 186 466 213 128 13 204 31 278 66 67 32 132 78 146
105 13 25 8 24 -55 -5z"/>
</g>
</svg>
